<svg xmlns="http://www.w3.org/2000/svg" xmlns:xlink="http://www.w3.org/1999/xlink" width="161.869" height="68.925" viewBox="0 0 161.869 68.925">
  <defs>
    <linearGradient id="linear-gradient" y1="0.5" x2="1" y2="0.5" gradientUnits="objectBoundingBox">
      <stop offset="0" stop-color="#4fc6e2"/>
      <stop offset="1" stop-color="#1a4a9b"/>
    </linearGradient>
  </defs>
  <g id="Group_313" data-name="Group 313" transform="translate(-66.266 -48.582)">
    <g id="Group_14" data-name="Group 14" transform="translate(66.266 48.582)">
      <path id="Path_31" data-name="Path 31" d="M81.963,54.43a8.521,8.521,0,0,0-5.605-1.764c-1.6,0-3.525.24-3.525,2.085,0,1.361,1.6,2,4.005,2.882,2.8,1.041,6.086,2.4,6.086,6.327,0,6.248-6.646,7.049-9.773,7.049a20.6,20.6,0,0,1-5.124-.562c-1.441-.4-1.761-1.042-1.761-2.962V65.161a11.774,11.774,0,0,0,6.248,1.682c2.563,0,3.844-.722,3.844-2.322,0-1.521-1.363-2.083-4.966-3.444-2.482-.964-5.125-2.242-5.125-5.848,0-5.285,6.007-6.647,9.61-6.647a13.263,13.263,0,0,1,5.048.882c.96.48,1.039,1.039,1.039,2.32Zm19.063-4.966h6.729c-.24,2.163-.321,5.606-.321,8.969V61.4a67.108,67.108,0,0,0,.48,8.97h-3.845c-1.442,0-2.162-.481-2.4-1.442a9.617,9.617,0,0,1-5.848,1.922c-7.208,0-8.087-4.323-8.087-7.528V57.472a66.762,66.762,0,0,0-.4-8.009h4.005c1.841,0,2.722,1.12,2.722,2.962v8.492c0,3.363.322,5.926,4.486,5.926a7.509,7.509,0,0,0,2.722-.48V58.835C101.266,56.192,101.186,51.626,101.026,49.464Zm19.861,20.9h-6.727c.24-2.163.322-5.605.322-8.97V58.433a55.9,55.9,0,0,0-.48-8.969h3.844c1.441,0,2.163.48,2.4,1.441a9.642,9.642,0,0,1,5.845-1.923c7.211,0,8.09,4.325,8.09,7.529v5.847a66.76,66.76,0,0,0,.4,8.01h-4c-1.842,0-2.722-1.119-2.722-2.962V58.916c0-3.367-.322-5.93-4.485-5.93a7.466,7.466,0,0,0-2.722.481V61C120.651,63.64,120.651,68.2,120.887,70.367Z" transform="translate(-66.266 -48.582)" fill="#51c5da"/>
      <path id="Path_32" data-name="Path 32" d="M160.95,49.488a26.762,26.762,0,0,0,3.765-.242,25.677,25.677,0,0,1-.962,3.043c-.562,1.2-1.28,1.6-4.085,1.6h-2.4v7.13c0,2.645.08,7.208.321,9.371h-6.808c.241-2.163.321-6.727.321-9.371V53.89h-2.083a9.4,9.4,0,0,0-4.244.723v-2.8c0-1.6.319-2.32,2.723-2.32ZM187.3,59.738c0,6.969-4,11.3-11.213,11.3S165.2,67.11,165.2,59.979c0-7.047,3.925-11.132,11.133-11.132S187.3,52.691,187.3,59.738Zm-15.94.081c0,4.807,1.684,6.969,4.968,6.969,3.2,0,4.806-2.162,4.806-6.969s-1.6-7.047-4.806-7.047C173.044,52.772,171.36,55.016,171.36,59.819Z" transform="translate(-73.649 -48.607)" fill="#51c5da"/>
      <path id="Path_33" data-name="Path 33" d="M214.882,71.644c-2.562,0-3.125-.962-4.727-3.285-.882-1.28-3.685-6.007-4.163-6.967-.242-.481-.323-.881.159-1.121,2.081-1.2,2.643-2.484,2.643-3.926,0-1.682-.72-3.124-3.125-3.124a9.057,9.057,0,0,0-2.242.241V61.07c0,2.645.081,7.208.323,9.371h-6.571c.242-2.083.322-5.605.322-8.97V58.507a55.447,55.447,0,0,0-.482-8.969c3.126,0,7.691-.161,9.691-.161,3.527,0,8.252.723,8.252,6.007a5.806,5.806,0,0,1-2.8,5.045c-.319.242-.319.4,0,.881a79.89,79.89,0,0,0,7.451,9.774A23.989,23.989,0,0,1,214.882,71.644Zm17.137-7.288v.481a41.317,41.317,0,0,0,.323,5.605h-6.808a42.119,42.119,0,0,0,.32-5.605v-.481a6.954,6.954,0,0,0-.959-3.2c-1.524-3.044-4.887-8.892-7.771-11.534a40.145,40.145,0,0,1,4.486-.241c2.642,0,3.445.882,4.085,1.923a73.331,73.331,0,0,1,3.524,7.129,73.616,73.616,0,0,1,3.444-7.049,3.993,3.993,0,0,1,3.764-2,37.05,37.05,0,0,1,4.005.241c-2.082,1.842-6.007,8.329-7.609,11.293A6.358,6.358,0,0,0,232.019,64.355Z" transform="translate(-78.562 -48.657)" fill="#51c5da"/>
    </g>
    <path id="Path_34" data-name="Path 34" d="M222.459,82.593c.978.275,1.03,2.162.347,2.5s-127.547-.265-127.547-.265l1.122-.6S221.48,82.321,222.459,82.593Z" transform="translate(-2.726 -3.196)" fill="url(#linear-gradient)"/>
    <g id="Group_15" data-name="Group 15" transform="translate(69.209 82.537)">
      <path id="Path_35" data-name="Path 35" d="M111.88,110.8h3.508c1.365,0,1.887.473,1.887,1.629,0,1.113-.522,1.583-1.887,1.583H111.88Zm-5.433,11.69h5.433v-4.751H117.7c3.854,0,5.241-2.268,5.241-5.2,0-3.4-1.425-5.332-5.278-5.332H106.447Z" transform="translate(-72.987 -88.049)" fill="#323994"/>
      <path id="Path_36" data-name="Path 36" d="M126.628,107.2h14.625v3.727h-9.192v2.056H140.6v3.724h-8.536v2.056h9.192v3.724H126.628Z" transform="translate(-74.885 -88.049)" fill="#323994"/>
      <path id="Path_37" data-name="Path 37" d="M150.713,110.8h3.506c1.367,0,1.889.473,1.889,1.629,0,1.113-.522,1.583-1.889,1.583h-3.506Zm-5.433,11.69h5.433v-4.751h5.818c3.854,0,5.241-2.268,5.241-5.2,0-3.4-1.426-5.332-5.28-5.332H145.28Z" transform="translate(-76.639 -88.049)" fill="#323994"/>
      <path id="Path_38" data-name="Path 38" d="M168.878,115.945a4.068,4.068,0,0,1-3.755-4.305c0-3.96,3.49-5.028,7.957-5.028,6.129,0,8.654,1.775,8.846,5.009H175.6a1.254,1.254,0,0,0-.829-1.225,3.992,3.992,0,0,0-1.7-.319c-1.615,0-2.177.451-2.177,1.093a.717.717,0,0,0,.714.793l6.491,1.071c2.739.448,4.432,1.86,4.432,4.454,0,3.721-2.737,5.477-8.844,5.477-4.181,0-8.747-.638-8.766-5.136h6.551a1.209,1.209,0,0,0,.578,1.093,4.023,4.023,0,0,0,1.849.323c1.7,0,2.158-.517,2.158-1.244a1.021,1.021,0,0,0-.981-1.026Z" transform="translate(-78.487 -87.994)" fill="#323994"/>
      <path id="Path_39" data-name="Path 39" d="M186.325,107.2h5.432v15.287h-5.432Z" transform="translate(-80.499 -88.049)" fill="#323994"/>
      <path id="Path_40" data-name="Path 40" d="M212.631,116.477a7.424,7.424,0,0,1-2.312,4.755c-1.331,1.113-3.409,1.731-6.725,1.731-3.292,0-9.4-.253-9.4-8.177s6.109-8.174,9.4-8.174,8.326.467,9.037,6.526h-6.125a2.827,2.827,0,0,0-2.912-2.675c-2.215,0-3.621,1.222-3.621,4.324s1.37,4.327,3.352,4.327a2.967,2.967,0,0,0,3.181-2.636Z" transform="translate(-81.239 -87.994)" fill="#323994"/>
      <path id="Path_41" data-name="Path 41" d="M221.793,114.786c0-3.1,1.406-4.324,3.622-4.324s3.625,1.222,3.625,4.324-1.408,4.327-3.625,4.327S221.793,117.894,221.793,114.786Zm-5.777,0c0,7.924,6.1,8.177,9.4,8.177s9.4-.253,9.4-8.177-6.107-8.174-9.4-8.174S216.016,106.867,216.016,114.786Z" transform="translate(-83.291 -87.994)" fill="#323994"/>
      <path id="Path_42" data-name="Path 42" d="M95.322,105.633c.35-7.332-5.976-15.592-14.605-16.61l.015-.1c8.5,0,15.026,7.87,15.026,14.08a9.3,9.3,0,0,1-.3,2.673Zm-.515.93a13.6,13.6,0,0,1-2.11,2.047C91.162,99.8,84.679,92.086,80.1,89.838l-.1.069a40.172,40.172,0,0,1,12.245,19.051,17.974,17.974,0,0,1-3.512,2.012c-4.35-4.959-8.4-14.519-9.712-20.584l-.132.041c.03,5.887,4.213,15.884,9.315,20.761a17.662,17.662,0,0,1-3.629,1c-4.89-1.935-8.371-8.136-8.371-14.488a16.481,16.481,0,0,1,1.509-7.236l-.1-.042a12.9,12.9,0,0,0-2.148,7.487c0,7.181,3.541,12.669,8.247,14.4a16.273,16.273,0,0,1-5.04-.237l-.034.111a12.849,12.849,0,0,0,4.812.9,13.407,13.407,0,0,0,11.478-6.438Z" transform="translate(-70.073 -86.33)" fill="#323994"/>
      <path id="Path_43" data-name="Path 43" d="M82.617,86.061c-4.464,0-9.7,3.222-9.7,6.167,0,1.133,1.044,2.1,3.2,2.1,5.01,0,9.663-3.438,9.663-6.113C85.777,86.806,84.424,86.061,82.617,86.061ZM84.4,88.133c0,2.253-4.332,5.008-7.953,5.008-1.6,0-2.463-.631-2.463-1.668,0-2.288,4.379-5,7.778-5C83.975,86.478,84.4,87.6,84.4,88.133Z" transform="translate(-69.834 -86.061)" fill="#2099c0"/>
      <path id="Path_44" data-name="Path 44" d="M70.887,93.638a4.954,4.954,0,0,0-.627,2.207c0,1.872,1.888,3.606,5.364,3.606,6.687,0,14.414-4.919,14.414-9.485,0-2.052-1.942-3.165-3.291-3.4l-.025.08a2.837,2.837,0,0,1,1.957,2.673c0,3.638-6.823,8.6-13.618,8.6-2.6,0-4.237-1.283-4.237-3.155a3.717,3.717,0,0,1,.153-1.09Z" transform="translate(-69.584 -86.109)" fill="#ff7326"/>
      <path id="Path_45" data-name="Path 45" d="M92.725,90.7a3.539,3.539,0,0,1,1.285,2.79c0,5.914-9.275,11.734-17.473,11.734-4.89,0-7.12-2.414-7.018-4.558H69.6c.191,1.111,1.78,3.1,6.06,3.1,8.21,0,17.374-6.016,17.374-11.29a3.523,3.523,0,0,0-.384-1.718Z" transform="translate(-69.514 -86.497)" fill="#009353"/>
      <path id="Path_46" data-name="Path 46" d="M96.048,96.789a5,5,0,0,1,.237,1.581c0,6.578-9.387,12.212-17.548,12.212-4.2,0-6.4-2.04-6.86-2.868l.075-.055a9.778,9.778,0,0,0,6.124,1.787c7.211,0,17.968-5.48,17.871-12.631Z" transform="translate(-69.737 -87.07)" fill="#ff2a0c"/>
    </g>
  </g>
</svg>
