<svg xmlns="http://www.w3.org/2000/svg" width="158.39" height="33.51" viewBox="0 0 158.39 33.51">
  <defs>
    <style>
      .a {
        fill: #5bc2dc;
      }
    </style>
  </defs>
  <g>
    <path class="a" d="M28.65,4.64a6.79,6.79,0,0,0-4.46-1.4c-1.27,0-2.79.19-2.79,1.65,0,1.08,1.26,1.58,3.17,2.28,2.22.83,4.82,1.91,4.82,5,0,5-5.27,5.59-7.74,5.59a16.31,16.31,0,0,1-4.06-.45c-1.15-.32-1.4-.83-1.4-2.35V13.14a9.28,9.28,0,0,0,4.95,1.34c2,0,3.05-.57,3.05-1.84S23.11,11,20.25,9.89c-2-.76-4.06-1.78-4.06-4.63C16.2,1.08,21,0,23.82,0a10.47,10.47,0,0,1,4,.69c.76.38.83.82.83,1.84ZM43.76.69H49.1c-.2,1.71-.26,4.45-.26,7.11v2.35a54.55,54.55,0,0,0,.38,7.11h-3c-1.15,0-1.72-.38-1.91-1.14a7.66,7.66,0,0,1-4.64,1.52c-5.71,0-6.41-3.43-6.41-6V7.05a52,52,0,0,0-.3-6.36h3.17c1.46,0,2.16.89,2.16,2.35V9.78c0,2.67.25,4.7,3.56,4.7A5.93,5.93,0,0,0,44,14.1v-6C44,6,43.89,2.4,43.76.69ZM59.51,17.26H54.18c.19-1.72.25-4.46.25-7.11V7.81A43.41,43.41,0,0,0,54.05.7h3c1.15,0,1.72.38,1.91,1.15A7.66,7.66,0,0,1,63.63.32c5.72,0,6.42,3.43,6.42,6v4.63a51.84,51.84,0,0,0,.32,6.35H67.2c-1.46,0-2.15-.89-2.15-2.35V8.19c0-2.66-.26-4.7-3.56-4.7a5.94,5.94,0,0,0-2.17.38v6c0,2.1,0,5.72.19,7.43Z"/>
    <path class="a" d="M85.41.69a23,23,0,0,0,3-.19,20.26,20.26,0,0,1-.76,2.4c-.45,1-1,1.27-3.24,1.27H82.5V9.84c0,2.1.06,5.71.25,7.43h-5.4c.19-1.71.25-5.33.25-7.43V4.19H76a7.45,7.45,0,0,0-3.37.57V2.54c0-1.27.26-1.84,2.16-1.84Zm20.88,8.14c0,5.52-3.17,9-8.89,9S88.76,14.67,88.76,9,91.89.19,97.6.19s8.69,3,8.69,8.64Zm-12.64.06c0,3.8,1.35,5.51,3.95,5.51s3.81-1.71,3.81-5.52-1.27-5.59-3.81-5.59-3.93,1.79-3.93,5.6Z"/>
    <path class="a" d="M124.27,18.23c-2,0-2.47-.77-3.75-2.6-.68-1-2.92-4.77-3.3-5.53-.18-.38-.25-.68.13-.89,1.65-1,2.1-2,2.1-3.11a2.2,2.2,0,0,0-1.89-2.47,2,2,0,0,0-.6,0,7.19,7.19,0,0,0-1.78.19v6c0,2.1.07,5.72.26,7.43h-5.2c.19-1.65.25-4.45.25-7.11V7.81A43.41,43.41,0,0,0,110.11.7c2.48,0,6.1-.13,7.69-.13,2.79,0,6.53.58,6.53,4.77a4.59,4.59,0,0,1-2.22,4c-.25.19-.25.32,0,.68a64.37,64.37,0,0,0,5.9,7.75,18.85,18.85,0,0,1-3.75.46Zm13.59-5.78v.38a33.26,33.26,0,0,0,.26,4.46h-5.4a33.25,33.25,0,0,0,.25-4.46v-.38a5.49,5.49,0,0,0-.76-2.55c-1.2-2.4-3.87-7-6.17-9.14a32.84,32.84,0,0,1,3.57-.19c2.09,0,2.74.69,3.24,1.53a59.23,59.23,0,0,1,2.79,5.65,57.9,57.9,0,0,1,2.75-5.59,3.15,3.15,0,0,1,3-1.59,30.5,30.5,0,0,1,3.18.19c-1.65,1.46-4.76,6.6-6,9a5,5,0,0,0-.65,2.73Z"/>
    <path class="a" d="M4.61,27.19A3.89,3.89,0,0,0,3,26.79c-.79,0-1.3.27-1.3.86,0,1.5,3.4.91,3.4,3.46,0,1.41-1.05,2.25-2.74,2.25A4.86,4.86,0,0,1,0,32.8l.55-1a4,4,0,0,0,1.64.39c.85,0,1.32-.3,1.32-1,0-1.45-3.39-.86-3.39-3.43,0-1.26,1.13-2.15,2.65-2.15a5.67,5.67,0,0,1,2.43.54Z"/>
    <path class="a" d="M13.21,30.57c0,1.82-1.34,2.79-3.13,2.79a2.64,2.64,0,0,1-2.95-2.3,3.72,3.72,0,0,1,0-.58l0-4.73H8.63l0,4.8a1.52,1.52,0,0,0,1.33,1.68,1.5,1.5,0,0,0,.3,0,1.58,1.58,0,0,0,1.66-1.51,2.09,2.09,0,0,0,0-.25l0-4.74h1.32Z"/>
    <path class="a" d="M21.75,33l-1.71.4-2.67-4.71a9.85,9.85,0,0,1-.69-1.47s.09,1,.09,1.54v4.46H15.43L15.48,26l1.71-.38,2.66,4.69a10.22,10.22,0,0,1,.69,1.46s-.09-.94-.09-1.54V25.76h1.34Z"/>
    <path class="a" d="M26.67,26.91l0,6.33H25.14l0-6.33H23.23V25.75h5.39v1.16Z"/>
    <path class="a" d="M33.1,33.36a3.5,3.5,0,0,1-3.83-3.14,3.56,3.56,0,0,1,0-.73A3.76,3.76,0,0,1,33,25.64h.13a3.55,3.55,0,0,1,3.81,3.25,3,3,0,0,1,0,.6,3.81,3.81,0,0,1-3.73,3.88Zm0-6.61c-1.26,0-2.22,1-2.22,2.74s.67,2.74,2.22,2.74,2.2-1.37,2.2-2.74C35.3,27.84,34.58,26.75,33.1,26.75Z"/>
    <path class="a" d="M42.89,33.42l-2.35-3.55.38-.67c.28,0,1.51-.1,1.51-1.22,0-.92-.61-1.2-1.41-1.2a6.33,6.33,0,0,0-.87,0l0,6.43H38.63l0-7.49s1.73-.1,2.42-.1c1.58,0,2.86.44,2.86,2.13a2.18,2.18,0,0,1-1.75,2.14,2.4,2.4,0,0,1,.45.5l1.61,2.38Z"/>
    <path class="a" d="M48.67,29.85l0,3.38H47.16l0-3.3-2.4-3.68,1.32-.65L47.58,28a4.48,4.48,0,0,1,.42.85,5,5,0,0,1,.43-.83L50,25.61l1.19.61Z"/>
    <path class="a" d="M57.8,33.3c-.52,0-1.58,0-2.19-.06l0-7.49c.55,0,1.86-.1,2.4-.1,1,0,2.86,0,2.86,2a1.75,1.75,0,0,1-1.45,1.78A1.66,1.66,0,0,1,61,31.15C61,32.4,60.09,33.29,57.8,33.3ZM57.91,30h-.79v2.15l.77,0c.92,0,1.54-.32,1.54-1.1,0-.94-.65-1.07-1.52-1.07Zm.16-3.22-.94,0v2.06H58c.87,0,1.37-.3,1.37-1.05s-.5-1-1.31-1Z"/>
    <path class="a" d="M63.12,33.24l.05-7.49h4.3v1.16H64.64v1.93h2.8V30h-2.8v2.09h2.85v1.15Z"/>
    <path class="a" d="M73,33.23H71.43L68.82,26l1.44-.39,1.59,4.65A15.38,15.38,0,0,1,72.28,32a10.34,10.34,0,0,1,.46-1.8l1.71-4.63,1.3.38Z"/>
    <path class="a" d="M77.25,33.24l0-7.49h4.3v1.16H78.78v1.93h2.79V30H78.76v2.09H81.6v1.15Z"/>
    <path class="a" d="M88.12,33.42l-2.35-3.55.37-.67c.29,0,1.52-.1,1.52-1.22,0-.92-.62-1.2-1.42-1.2a6.18,6.18,0,0,0-.86,0l0,6.43H83.85l.05-7.49s1.74-.1,2.42-.1c1.59,0,2.86.44,2.86,2.13a2.18,2.18,0,0,1-1.75,2.14,2.11,2.11,0,0,1,.44.5l1.62,2.38Z"/>
    <path class="a" d="M95.71,33.37,95,31.23H92.29l-.8,2.13-1.31-.31,2.87-7.3h1.46L97.19,33Zm-1.6-4.63A12,12,0,0,1,93.67,27a12.08,12.08,0,0,1-.47,1.79l-.47,1.34h1.86Z"/>
    <path class="a" d="M104.39,32.86a9.71,9.71,0,0,1-2.44.5c-2.21,0-3.94-1.15-3.94-3.83a4,4,0,0,1,4-3.9,4.08,4.08,0,0,1,2.08.5l-.57,1a3.23,3.23,0,0,0-1.52-.32,2.57,2.57,0,0,0-2.36,2.71c0,1.51.75,2.74,2.32,2.74a3.81,3.81,0,0,0,1-.13l0-2.48h1.45Z"/>
    <path class="a" d="M106.61,33.24l0-7.49H111v1.16h-2.83v1.93h2.8V30h-2.8v2.09H111v1.15Z"/>
    <path class="a" d="M121.82,33.51,121,32.6a3.28,3.28,0,0,1-2.18.76c-2.34,0-2.8-1.37-2.8-2.27a3,3,0,0,1,1.65-2.27,2.18,2.18,0,0,1-.84-1.56c0-1.16,1.06-1.62,2.19-1.62s1.76.56,1.76,1.48a2.19,2.19,0,0,1-1.24,1.71l1.41,1.56a6.57,6.57,0,0,0,.12-1.4h1.26a5.2,5.2,0,0,1-.44,2.46l1.1,1.24Zm-3.46-3.88a1.43,1.43,0,0,0-.8,1.25,1.26,1.26,0,0,0,1.18,1.37h.19a1.86,1.86,0,0,0,1.33-.49Zm.5-3.05a.59.59,0,0,0-.61.57c0,.29.2.48.56.87.49-.35.68-.56.68-.89s-.2-.55-.63-.55Z"/>
    <path class="a" d="M129.33,26.91l0,2.06h2.8v1.17h-2.8l0,3.11H127.8l0-7.49h4.3v1.16Z"/>
    <path class="a" d="M137.36,33.36a3.5,3.5,0,0,1-3.83-3.14,3.56,3.56,0,0,1,0-.73,3.76,3.76,0,0,1,3.68-3.85h.14a3.55,3.55,0,0,1,3.81,3.25q0,.3,0,.6a3.81,3.81,0,0,1-3.73,3.88Zm0-6.61c-1.27,0-2.22,1-2.22,2.74s.67,2.74,2.22,2.74,2.2-1.37,2.2-2.74C139.55,27.84,138.83,26.75,137.36,26.75Z"/>
    <path class="a" d="M146.28,33.36a3.49,3.49,0,0,1-3.82-3.14,3,3,0,0,1,0-.73,3.77,3.77,0,0,1,3.69-3.85h.13a3.53,3.53,0,0,1,3.81,3.24,3.11,3.11,0,0,1,0,.61,3.8,3.8,0,0,1-3.73,3.87Zm0-6.61c-1.26,0-2.22,1-2.22,2.74s.67,2.74,2.22,2.74,2.2-1.37,2.2-2.74C148.46,27.84,147.76,26.75,146.28,26.75Z"/>
    <path class="a" d="M154.37,33.3c-1.35,0-2.51-.06-2.51-.06l0-7.49c.34,0,1.74-.1,2.53-.1,2,0,4,.83,4,3.7a3.92,3.92,0,0,1-3.88,3.95Zm.12-6.55c-.45,0-.88,0-1.11,0l0,5.37,1,0a2.59,2.59,0,0,0,2.4-2.76v0c0-1.57-.81-2.62-2.3-2.62Z"/>
  </g>
</svg>
