<svg width="129" height="44" viewBox="0 0 129 44" fill="none" xmlns="http://www.w3.org/2000/svg">
<g clip-path="url(#clip0_538_859)">
<path d="M27.3651 34.3995C27.3651 35.4877 27.1806 36.4954 26.8107 37.4224C26.4407 38.3494 25.9338 39.1456 25.2889 39.8102C24.6441 40.4756 23.8917 40.996 23.0319 41.3722C22.1721 41.7484 21.2513 41.9364 20.2706 41.9364C19.2899 41.9364 18.3127 41.7546 17.4591 41.3919C16.6056 41.0291 15.8703 40.5186 15.2523 39.8603C14.6343 39.202 14.1506 38.4094 13.8013 37.4824C13.452 36.5554 13.2773 35.5272 13.2773 34.3986C13.2773 33.2701 13.4717 32.2831 13.8613 31.3561C14.2509 30.4291 14.7749 29.6302 15.4332 28.9575C16.0915 28.2858 16.8537 27.7618 17.7207 27.3857C18.5868 27.0095 19.4968 26.8214 20.4515 26.8214C21.4726 26.8214 22.4067 27.0023 23.2531 27.3651C24.0995 27.7278 24.8277 28.2419 25.4394 28.9065C26.0502 29.572 26.524 30.3673 26.8599 31.2943C27.1958 32.2213 27.3633 33.2558 27.3633 34.3977L27.3651 34.3995ZM25.4099 34.4497C25.4099 33.6042 25.2988 32.8097 25.0776 32.0655C24.8563 31.3212 24.5303 30.6709 24.1004 30.1138C23.6705 29.5567 23.1465 29.1179 22.5285 28.7963C21.9105 28.4748 21.1985 28.3136 20.3924 28.3136C19.6804 28.3136 19.0122 28.4578 18.387 28.7462C17.7628 29.0346 17.2146 29.4439 16.7444 29.9732C16.2742 30.5034 15.9043 31.1402 15.6356 31.8845C15.3669 32.6288 15.2326 33.4573 15.2326 34.3691C15.2326 35.2808 15.3499 36.0457 15.5854 36.7829C15.8201 37.5209 16.156 38.1613 16.593 38.704C17.0292 39.2477 17.5568 39.6731 18.1748 39.9821C18.7928 40.2911 19.4914 40.4443 20.2706 40.4443C21.0498 40.4443 21.735 40.2866 22.3664 39.9714C22.9979 39.6561 23.5388 39.2271 23.9885 38.6834C24.4381 38.1407 24.7874 37.5065 25.0364 36.782C25.2845 36.0574 25.409 35.28 25.409 34.4479V34.4497H25.4099Z" fill="#13375E"/>
<path d="M42.1555 28.9181C41.8734 28.7918 41.6181 28.6915 41.3897 28.6154C41.1613 28.5402 40.9267 28.4802 40.684 28.4363C40.4421 28.3924 40.1869 28.361 39.9182 28.3422C39.6495 28.3234 39.3468 28.3136 39.0118 28.3136C38.152 28.3136 37.3862 28.4784 36.7144 28.8071C36.0427 29.1367 35.4748 29.5827 35.0118 30.147C34.5487 30.7112 34.1923 31.366 33.9442 32.112C33.6952 32.8572 33.5716 33.6472 33.5716 34.4801C33.5716 35.3131 33.6755 36.1559 33.8842 36.8885C34.092 37.6212 34.4045 38.249 34.821 38.773C35.2375 39.297 35.765 39.7072 36.4027 40.0027C37.0404 40.2983 37.7964 40.4461 38.6696 40.4461C39.3682 40.4461 39.9898 40.3502 40.5335 40.1577C41.078 39.966 41.585 39.7528 42.0552 39.5191L42.7198 40.8285C42.1152 41.1375 41.4363 41.3999 40.684 41.614C39.9316 41.829 39.1927 41.9364 38.4672 41.9364C37.4596 41.9364 36.5362 41.7654 35.6961 41.4223C34.8559 41.0802 34.1341 40.593 33.5295 39.9615C32.9249 39.3301 32.4547 38.558 32.1188 37.6436C31.783 36.73 31.6155 35.709 31.6155 34.5804C31.6155 33.4519 31.8 32.4578 32.1699 31.5173C32.5389 30.5769 33.053 29.7574 33.7113 29.0588C34.3696 28.3601 35.1551 27.8129 36.0696 27.4161C36.9831 27.0202 37.9845 26.8214 39.0718 26.8214C39.4883 26.8214 39.851 26.8313 40.16 26.8519C40.469 26.8725 40.7646 26.9056 41.0467 26.9522C41.3288 26.9996 41.6172 27.0695 41.9128 27.1636C42.2084 27.2576 42.5442 27.3857 42.9204 27.546L42.1546 28.9163V28.9181H42.1555Z" fill="#13375E"/>
<path d="M47.8788 41.6947L47.9997 27.0436H55.8188V28.5957H49.8331L49.7928 33.5129H55.6173V35.0444H49.7731L49.7525 40.1228H55.8985V41.6947H47.8779H47.8788Z" fill="#13375E"/>
<path d="M72.3033 41.9974L70.3051 36.8384H64.2675L62.2066 41.9974L60.4941 41.4528L66.6401 27.0436H68.3526L74.0758 41.4125L72.3024 41.9965L72.3033 41.9974ZM68.0445 31.0749C67.9773 30.9137 67.8994 30.7059 67.8125 30.4506C67.7247 30.1954 67.6477 29.9473 67.5805 29.7046C67.4999 29.4224 67.4122 29.134 67.3181 28.8385C67.2509 29.1072 67.1766 29.3696 67.096 29.624C67.0288 29.8523 66.9509 30.0906 66.864 30.3396C66.7762 30.5886 66.6921 30.8268 66.6114 31.0552L64.8739 35.3069H69.6997L68.0445 31.0749Z" fill="#13375E"/>
<path d="M89.9368 41.453L87.9422 41.9563L81.6341 31.8802C81.446 31.5847 81.2678 31.2757 81.1003 30.9532C80.9319 30.6308 80.7815 30.3352 80.6471 30.0665C80.4993 29.7575 80.3515 29.4557 80.2038 29.1601C80.2038 29.4826 80.21 29.7987 80.2235 30.1077C80.2369 30.3764 80.2468 30.6451 80.2539 30.9138C80.2602 31.1825 80.2638 31.4109 80.2638 31.599L80.2235 41.6957H78.511L78.6319 27.307L80.6068 26.8234L86.914 36.8789C87.1021 37.1744 87.2794 37.4798 87.4478 37.796C87.6153 38.1122 87.7667 38.4042 87.901 38.6728C88.0488 38.9953 88.1966 39.3043 88.3444 39.5998C88.3309 39.1699 88.3175 38.7535 88.304 38.3504C88.2906 38.0145 88.2834 37.6751 88.2834 37.3329V36.5367L88.3238 27.0446H90.0362L89.9359 41.4538H89.9368V41.453Z" fill="#13375E"/>
<path d="M98.1385 41.6947H96.2639L96.3857 27.0436H98.2585L98.1376 41.6947H98.1385Z" fill="#13375E"/>
<path d="M114.623 41.9974L112.625 36.8384H106.587L104.526 41.9974L102.814 41.4528L108.96 27.0436H110.672L116.395 41.4125L114.622 41.9965H114.623V41.9974ZM110.364 31.0749C110.297 30.9137 110.219 30.7059 110.132 30.4506C110.044 30.1954 109.967 29.9473 109.9 29.7046C109.82 29.4224 109.732 29.134 109.638 28.8385C109.571 29.1072 109.496 29.3696 109.416 29.624C109.348 29.8523 109.27 30.0906 109.184 30.3396C109.096 30.5886 109.012 30.8268 108.931 31.0552L107.193 35.3069H112.019L110.364 31.0749Z" fill="#13375E"/>
<path d="M12.6717 6.27282C11.6972 5.37 9.95249 4.84963 8.14327 4.84963C6.84995 4.84963 5.29958 5.0422 5.29958 6.52987C5.29958 7.63153 6.58752 8.15101 8.5284 8.85947C10.7944 9.69869 13.4473 10.8003 13.4473 13.9656C13.4473 19.0126 8.07968 19.6646 5.55663 19.6646C4.13433 19.6646 2.57769 19.5249 1.41961 19.2034C0.254365 18.8827 0 18.3695 0 16.8075V14.9374C1.29153 15.8473 3.36049 16.297 5.03804 16.297C7.107 16.297 8.14327 15.7193 8.14327 14.4259C8.14327 13.1326 7.04431 12.735 4.13523 11.6449C2.13165 10.8648 0 9.82677 0 6.91948C0 2.6517 4.84548 1.55273 7.75545 1.55273C9.50198 1.55273 10.9234 1.87427 11.8271 2.26388C12.6045 2.6517 12.6726 3.10311 12.6726 4.13938V6.27193" fill="#2CC1DC"/>
<path d="M27.8809 2.26288H33.3121C33.1187 4.0094 33.0524 6.7904 33.0524 9.50512V11.9019C33.0524 14.6166 33.1823 17.5857 33.4411 19.1388H30.3359C29.1724 19.1388 28.5929 18.7536 28.3959 17.9726C26.9064 19.0752 25.2933 19.5239 23.674 19.5239C17.8594 19.5239 17.1456 16.0389 17.1456 13.4505V8.73218C17.1456 6.08104 17.013 3.68607 16.8196 2.26377H20.0547C21.5397 2.26377 22.2508 3.16659 22.2508 4.65696V11.5042C22.2508 14.2207 22.5132 16.2969 25.8746 16.2969C26.6485 16.2969 27.425 16.1679 28.0717 15.9117V9.82756C28.0717 7.69501 28.0072 4.01119 27.8791 2.26467L27.8809 2.26288Z" fill="#2CC1DC"/>
<path d="M43.0193 19.1396H37.5871C37.7824 17.3957 37.8469 14.6174 37.8469 11.9027V9.50594C37.8469 6.79211 37.7824 3.81317 37.4573 2.26369H40.5616C41.7269 2.26369 42.3081 2.65151 42.4998 3.42894C43.9884 2.32728 45.605 1.87408 47.2217 1.87408C53.0425 1.87408 53.751 5.36982 53.751 7.95377V12.6721C53.751 15.3223 53.8818 17.7155 54.0752 19.1396H50.8401C49.3542 19.1396 48.6422 18.2287 48.6422 16.7428V9.89017C48.6422 7.17456 48.3851 5.1056 45.0237 5.1056C44.2472 5.1056 43.4707 5.23547 42.8231 5.497V11.5695C42.8231 13.7074 42.8231 17.3948 43.0175 19.1396H43.0193Z" fill="#2CC1DC"/>
<path d="M69.9379 2.26501C70.8434 2.26501 72.2657 2.20053 72.9769 2.07245C72.8479 2.58655 72.4592 3.94615 72.2012 4.52475C71.7489 5.49832 71.1659 5.81896 68.9034 5.81896H66.9635V11.5708C66.9635 13.7088 67.028 17.3962 67.2214 19.1409H61.7266C61.9218 17.3971 61.9854 13.7097 61.9854 11.5708V5.81896H60.3043C58.8157 5.81896 57.5242 6.01869 56.8757 6.40203V4.6582C56.8757 3.16783 57.1355 2.26501 59.2689 2.26501H69.9379Z" fill="#2CC1DC"/>
<path d="M91.8386 10.545C91.8386 16.1679 88.6061 19.6636 82.7853 19.6636C76.9644 19.6636 73.9927 16.4876 73.9927 10.7375C73.9927 4.98744 77.1597 1.74518 82.9788 1.74518C88.7978 1.74518 91.8386 4.84951 91.8386 10.545ZM78.9707 10.6103C78.9707 14.4903 80.3285 16.2324 82.9788 16.2324C85.629 16.2324 86.8596 14.4903 86.8596 10.6103C86.8596 6.73038 85.5654 4.91489 82.9788 4.91489C80.3921 4.91489 78.9707 6.72769 78.9707 10.6103Z" fill="#2CC1DC"/>
<path d="M109.098 20.1126C107.029 20.1126 106.576 19.3307 105.283 17.4596C104.57 16.4252 102.307 12.6079 101.921 11.8376C101.726 11.4418 101.661 11.1211 102.049 10.9285C103.731 9.95945 104.118 8.92318 104.118 7.75794C104.118 6.40102 103.601 5.23578 101.661 5.23578C101.08 5.23578 100.563 5.30295 100.174 5.43282V11.5698C100.174 13.7078 100.238 17.3952 100.434 19.1399H95.1309C95.3262 17.4596 95.3898 14.6177 95.3898 11.903V9.50625C95.3898 6.79242 95.3262 3.81348 95.002 2.264C97.5241 2.264 100.885 2.13593 102.503 2.13593C105.347 2.13593 109.098 2.7181 109.098 6.9823C109.098 8.73151 108.32 10.1529 106.898 11.0566C106.64 11.2492 106.64 11.3764 106.898 11.7749C108.711 14.4888 110.909 17.5223 112.913 19.6638C112.2 19.8555 110.326 20.1126 109.098 20.1126Z" fill="#2CC1DC"/>
<path d="M122.87 14.2219V14.6186C122.87 15.9129 122.935 18.0382 123.129 19.1408H117.631C117.825 18.0382 117.889 15.8493 117.889 14.6186V14.2219C117.889 13.5161 117.695 12.7996 117.114 11.6451C115.887 9.18023 113.172 4.46104 110.843 2.32759C111.749 2.20041 113.429 2.13682 114.463 2.13682C116.598 2.13682 117.243 2.84886 117.761 3.6863C118.214 4.39655 120.025 7.95408 120.609 9.44266C121.322 7.75794 122.742 4.78706 123.389 3.74989C123.905 2.97515 124.617 2.13593 126.427 2.13593C127.267 2.13593 128.626 2.19952 129.66 2.3267C127.978 3.81259 124.809 9.05126 123.519 11.4418C122.935 12.607 122.871 13.1954 122.871 14.2201V14.2219H122.87Z" fill="#2CC1DC"/>
</g>
<defs>
<clipPath id="clip0_538_859">
<rect width="129" height="44" fill="white"/>
</clipPath>
</defs>
</svg>
