<?xml version="1.0" encoding="UTF-8"?>
<svg id="Layer_2" xmlns="http://www.w3.org/2000/svg" version="1.1" viewBox="0 0 321 78">
  <!-- Generator: Adobe Illustrator 29.6.0, SVG Export Plug-In . SVG Version: 2.1.1 Build 207)  -->
  <defs>
    <style>
      .st0 {
        fill: #5ac3db;
      }

      .st1 {
        fill: #5dc2db;
      }
    </style>
  </defs>
  <g>
    <path class="st0" d="M10,60.2c0,.4,0,.8-.2,1.2-.2.4-.4.7-.8.9-.3.3-.8.5-1.3.6-.6.1-1.2.2-2,.2s-.4,0-.7,0c-.3,0-.5,0-.8,0s-.6,0-.8,0-.5,0-.7,0v-10.3c.3,0,.5,0,.8,0,.3,0,.6,0,.9,0,.3,0,.6,0,.9,0,.3,0,.5,0,.7,0,.3,0,.7,0,1.2,0s.9.1,1.3.3.8.4,1,.8.4.9.4,1.6,0,.7-.2.9c-.1.3-.3.5-.4.7-.2.2-.4.4-.6.5-.2.1-.5.2-.8.3.4,0,.7.1.9.3.3.2.5.3.6.6s.3.5.4.8c0,.3.1.5.1.8ZM7.8,60.1c0-.3,0-.6-.2-.8-.1-.2-.2-.3-.4-.4s-.4-.2-.7-.2-.5,0-.8,0h-1.1v3c.1,0,.3,0,.4,0,.1,0,.2,0,.4,0h.3c.6,0,1.2-.1,1.5-.4.4-.2.6-.6.6-1.2ZM7.8,55.6c0-.3,0-.5-.1-.7s-.2-.3-.4-.4c-.2-.1-.4-.2-.6-.2s-.5,0-.8,0-.4,0-.6,0c-.3,0-.5,0-.7,0v2.8s1.2,0,1.2,0c.6,0,1.1-.1,1.4-.3.3-.2.5-.6.5-1.1Z"/>
    <path class="st0" d="M12.9,63.1v-10.3h6v1.6h-3.9v2.7s3.9,0,3.9,0v1.6h-3.9v2.9s3.9,0,3.9,0v1.6h-6Z"/>
    <path class="st0" d="M26.5,63.1h-2.2l-3.6-10,2-.5,2.2,6.4c0,.2.2.5.2.8s.1.5.2.8c0,.3.1.6.2.9,0-.3,0-.5.2-.8,0-.2.1-.5.2-.8,0-.3.2-.6.3-.9l2.4-6.4,1.8.5-3.8,10Z"/>
    <path class="st0" d="M32.4,63.1v-10.3h6v1.6h-3.9v2.7s3.9,0,3.9,0v1.6h-3.9v2.9s3.9,0,3.9,0v1.6h-6Z"/>
    <path class="st0" d="M47.4,63.3l-3.2-4.9.5-.9c.2,0,.3,0,.5,0s.4,0,.6-.2c.2-.1.5-.3.6-.5s.3-.5.3-.9,0-.6-.1-.8c0-.2-.2-.4-.4-.5-.2-.1-.4-.2-.6-.3-.2,0-.5,0-.8,0s-.4,0-.6,0c-.2,0-.4,0-.6,0v8.9h-2.1v-10.3c.5,0,1,0,1.4,0,.4,0,.7,0,1.1,0,.4,0,.7,0,.9,0,.5,0,1.1,0,1.5.1s.9.2,1.2.5c.4.2.6.5.8.9.2.4.3.9.3,1.4s0,.8-.2,1.1c-.1.3-.3.6-.5.9-.2.2-.5.5-.8.6-.3.2-.6.3-.9.4.1.1.2.2.3.3s.2.2.3.4l2.2,3.3-1.9.8Z"/>
    <path class="st0" d="M58,63.2l-1-3h-3.7l-1.1,3-1.8-.4,4-10.1h2l3.7,10-2,.5ZM55.8,56.9c-.1-.3-.2-.6-.3-.9,0-.3-.1-.6-.2-.8,0-.3-.1-.5-.1-.8,0,.3-.1.5-.2.8,0,.2-.1.5-.2.8,0,.3-.2.6-.3.9l-.6,1.9h2.6l-.7-1.9Z"/>
    <path class="st0" d="M70.2,62.5c-.2,0-.5.2-.8.2s-.6.2-.9.2c-.3,0-.6.1-.9.2-.3,0-.5,0-.8,0-.8,0-1.5-.1-2.1-.3-.7-.2-1.2-.5-1.7-.9s-.9-1-1.2-1.6c-.3-.7-.4-1.5-.4-2.4s.2-1.5.5-2.1c.3-.7.7-1.2,1.2-1.7.5-.5,1.1-.9,1.7-1.1.7-.3,1.4-.4,2.1-.4s.6,0,.8,0c.2,0,.5,0,.7.1s.4.1.7.2.4.2.7.3l-.8,1.3c-.2,0-.4-.2-.6-.2-.2,0-.3,0-.5-.1s-.3,0-.5,0c-.2,0-.4,0-.6,0-.4,0-.8,0-1.2.3-.4.2-.7.5-1,.8-.3.3-.5.7-.7,1.2-.2.5-.3.9-.3,1.5s0,1,.2,1.5.3.9.6,1.2c.3.3.6.6,1,.8s.9.3,1.4.3.5,0,.7,0c.2,0,.4,0,.6-.1v-3.4h2.1v4.5Z"/>
    <path class="st0" d="M73.4,63.1v-10.3h6v1.6h-3.9v2.7s3.9,0,3.9,0v1.6h-3.9v2.9s3.9,0,3.9,0v1.6h-6Z"/>
    <path class="st0" d="M94.6,63.4l-1.1-1.3c-.4.3-.8.6-1.3.8-.5.2-1.1.3-1.7.3s-1.5-.1-2-.3c-.5-.2-.9-.5-1.2-.8s-.5-.7-.6-1-.1-.7-.1-1,0-.7.2-1,.3-.6.5-.8.5-.5.7-.7c.3-.2.5-.4.8-.6-.4-.4-.6-.7-.8-1-.2-.3-.3-.7-.3-1.1s0-.7.3-1,.4-.5.7-.7c.3-.2.6-.3,1-.4s.7-.1,1.1-.1c.7,0,1.3.2,1.8.5s.7.9.7,1.5,0,.5-.1.7-.2.4-.4.6-.3.4-.5.5c-.2.2-.4.3-.6.5l1.9,2.2c0-.3.1-.6.1-1s0-.7,0-.9h1.7c0,.6,0,1.2-.1,1.8,0,.6-.3,1.1-.5,1.6l1.5,1.7-1.6,1.1ZM89.8,58.1c-.3.2-.6.5-.8.7-.2.3-.3.6-.3,1,0,.6.2,1,.5,1.4.3.3.8.5,1.3.5s.7,0,1-.2c.3-.1.6-.3.8-.5l-2.6-2.9ZM91.4,54.6c0-.2,0-.4-.2-.5-.1-.1-.4-.2-.7-.2s-.4,0-.6.2c-.2.2-.2.3-.2.6s0,.4.2.5c.1.2.3.4.6.7.3-.2.6-.5.7-.6.1-.2.2-.4.2-.6Z"/>
    <path class="st0" d="M104.2,54.3v2.8s3.9,0,3.9,0v1.6h-3.9v4.3h-2.1v-10.3h6v1.6h-3.9Z"/>
    <path class="st0" d="M120.8,57.9c0,.7-.1,1.4-.4,2.1s-.6,1.2-1.1,1.7c-.5.5-1,.9-1.7,1.1-.6.3-1.3.4-2.1.4s-1.5-.1-2.2-.3c-.7-.2-1.2-.6-1.7-1-.5-.4-.8-1-1.1-1.7-.2-.7-.4-1.4-.4-2.3s.1-1.4.4-2.1c.3-.6.6-1.2,1.1-1.7.5-.5,1-.9,1.7-1.1.6-.3,1.3-.4,2.1-.4s1.6.1,2.2.4c.7.2,1.2.6,1.6,1.1.4.5.8,1,1,1.7.2.7.4,1.4.4,2.2ZM118.6,57.9c0-.6,0-1.1-.2-1.5-.1-.5-.3-.9-.6-1.2s-.6-.6-.9-.8c-.4-.2-.8-.3-1.3-.3s-.8,0-1.2.3c-.4.2-.7.4-1,.7-.3.3-.5.7-.6,1.2s-.2,1-.2,1.6c0,1.2.2,2.1.7,2.8.5.7,1.3,1,2.3,1s1-.1,1.3-.3.7-.5.9-.8.4-.8.6-1.2c.1-.5.2-.9.2-1.4Z"/>
    <path class="st0" d="M133.4,57.9c0,.7-.1,1.4-.4,2.1s-.6,1.2-1.1,1.7c-.5.5-1,.9-1.7,1.1-.6.3-1.3.4-2.1.4s-1.5-.1-2.2-.3c-.7-.2-1.2-.6-1.7-1-.5-.4-.8-1-1.1-1.7-.2-.7-.4-1.4-.4-2.3s.1-1.4.4-2.1c.3-.6.6-1.2,1.1-1.7.5-.5,1-.9,1.7-1.1.6-.3,1.3-.4,2.1-.4s1.6.1,2.2.4c.7.2,1.2.6,1.6,1.1.4.5.8,1,1,1.7.2.7.4,1.4.4,2.2ZM131.2,57.9c0-.6,0-1.1-.2-1.5-.1-.5-.3-.9-.6-1.2s-.6-.6-.9-.8c-.4-.2-.8-.3-1.3-.3s-.8,0-1.2.3c-.4.2-.7.4-1,.7-.3.3-.5.7-.6,1.2s-.2,1-.2,1.6c0,1.2.2,2.1.7,2.8.5.7,1.3,1,2.3,1s1-.1,1.3-.3.7-.5.9-.8.4-.8.6-1.2c.1-.5.2-.9.2-1.4Z"/>
    <path class="st0" d="M145.2,57.7c0,.9-.2,1.7-.5,2.3-.3.7-.8,1.2-1.3,1.7-.5.5-1.1.8-1.8,1-.7.2-1.3.4-2,.4s-.9,0-1.3,0c-.4,0-.8,0-1.1,0-.4,0-.7,0-1,0v-10.3c.2,0,.4,0,.7,0,.3,0,.6,0,.9,0,.3,0,.7,0,1,0,.4,0,.7,0,.9,0,.7,0,1.4,0,2,.2.7.2,1.2.4,1.7.8s.9.9,1.2,1.6c.3.7.5,1.5.5,2.5ZM142.9,57.7c0-.5,0-1-.2-1.5-.1-.4-.3-.8-.6-1.1-.3-.3-.6-.6-1-.7s-.9-.3-1.4-.3-.6,0-.9,0c-.3,0-.5,0-.7,0v7.4c.1,0,.3,0,.5,0,.1,0,.3,0,.4,0h.5c.5,0,.9-.1,1.3-.3.4-.2.8-.5,1.1-.8.3-.3.5-.7.7-1.2.2-.5.3-1,.3-1.5Z"/>
    <path class="st0" d="M160.1,63.1h-2v-4.5s-4.1,0-4.1,0v4.5h-2.1v-10.3h2.1v4.2s4.1,0,4.1,0v-4.2h2.1v10.3Z"/>
    <path class="st0" d="M163.5,63.1v-10.3h6v1.6h-3.9v2.7s3.9,0,3.9,0v1.6h-3.9v2.9s4,0,4,0v1.6h-6Z"/>
    <path class="st0" d="M178.8,63.2l-1-3h-3.7l-1.1,3-1.8-.4,4-10.1h2l3.7,10-2,.5ZM176.6,56.9c-.1-.3-.2-.6-.3-.9,0-.3-.1-.6-.2-.8,0-.3-.1-.5-.1-.8,0,.3-.1.5-.2.8,0,.2-.1.5-.2.8,0,.3-.2.6-.3.9l-.6,1.9h2.6l-.7-1.9Z"/>
    <path class="st0" d="M183,63.1v-10.3h2.1v8.7c0,0,3.6,0,3.6,0v1.6h-5.7Z"/>
    <path class="st0" d="M194.4,54.3v8.7h-2.1v-8.7c0,0-2.6,0-2.6,0v-1.6h7.4v1.6h-2.7Z"/>
    <path class="st0" d="M207.6,63.1h-2v-4.5s-4.1,0-4.1,0v4.5h-2.1v-10.3h2.1v4.2s4.1,0,4.1,0v-4.2h2.1v10.3Z"/>
    <path class="st0" d="M216,63.1v-10.3h6v1.6h-3.9v2.7s3.9,0,3.9,0v1.6h-3.9v2.9s4,0,4,0v1.6h-6Z"/>
    <path class="st0" d="M233.9,62.8l-2.3.6-3.7-6.5c-.2-.3-.3-.5-.4-.8-.1-.2-.2-.5-.3-.6,0-.2-.2-.4-.2-.6,0,.3,0,.5,0,.8,0,.2,0,.4,0,.7,0,.2,0,.5,0,.7v6.1h-1.9v-10c0,0,2.4-.5,2.4-.5l2.1,3.6,1.6,2.8c.2.3.3.5.4.8.1.2.2.5.3.6,0,.2.2.4.3.6,0-.3,0-.5,0-.8,0-.2,0-.4,0-.7,0-.2,0-.5,0-.7v-6.2h1.9v10Z"/>
    <path class="st0" d="M243.4,63.3l-3.2-4.9.5-.9c.2,0,.3,0,.5,0s.4,0,.6-.2c.2-.1.5-.3.6-.5s.3-.5.3-.9,0-.6-.1-.8c0-.2-.2-.4-.4-.5-.2-.1-.4-.2-.6-.3-.2,0-.5,0-.8,0s-.4,0-.6,0c-.2,0-.4,0-.6,0v8.9h-2.1v-10.3c.5,0,1,0,1.4,0,.4,0,.7,0,1.1,0,.4,0,.7,0,.9,0,.5,0,1.1,0,1.5.1.5,0,.9.2,1.2.5.4.2.6.5.8.9.2.4.3.9.3,1.4s0,.8-.2,1.1-.3.6-.5.9-.5.5-.8.6c-.3.2-.6.3-.9.4.1.1.2.2.3.3s.2.2.3.4l2.2,3.3-1.9.8Z"/>
    <path class="st0" d="M250.1,63.1h-2v-10.3h2.1v10.3Z"/>
    <path class="st0" d="M260.6,54.5c-.2,0-.4-.1-.6-.2s-.3,0-.5-.1-.3,0-.5,0-.4,0-.6,0c-.4,0-.8,0-1.2.3s-.7.5-1,.8c-.3.3-.5.7-.7,1.2-.2.5-.3.9-.3,1.5s0,1,.2,1.5c.1.5.3.9.6,1.2.3.3.6.6,1,.8s.9.3,1.4.3.8,0,1.1-.2.6-.2.9-.4l.8,1.3c-.2.1-.4.2-.7.3-.2,0-.5.2-.8.2-.3,0-.5.1-.8.2-.2,0-.5,0-.7,0-.8,0-1.5-.1-2.1-.3-.7-.2-1.2-.5-1.7-.9-.5-.4-.9-1-1.2-1.6-.3-.7-.4-1.5-.4-2.4s.2-1.5.5-2.1c.3-.7.7-1.2,1.2-1.7s1.1-.9,1.7-1.1c.7-.3,1.4-.4,2.1-.4s.6,0,.8,0,.5,0,.7.1.4.1.7.2c.2,0,.4.2.7.3l-.8,1.3Z"/>
    <path class="st0" d="M271.9,63.1h-2v-4.5s-4.1,0-4.1,0v4.5h-2.1v-10.3h2.1v4.2s4.1,0,4.1,0v-4.2h2.1v10.3Z"/>
    <path class="st0" d="M286.5,63.2l-1.2-6.8c0-.1,0-.3,0-.6s0-.5,0-.7c0-.3,0-.5,0-.8,0,.3-.1.5-.2.8,0,.2,0,.4-.2.7s-.1.5-.2.7l-1.9,6.6h-2.4l-1.7-6.5c0-.3-.1-.5-.2-.8,0-.3,0-.5-.1-.7,0-.2,0-.5,0-.7,0,.2,0,.5,0,.7,0,.2,0,.5-.1.7s0,.5-.1.8l-1.4,6.7-1.8-.3,2.3-10.2h2.5l1.7,6.5c0,.3.1.6.2.8,0,.2,0,.5.1.7,0,.2,0,.4,0,.6,0-.2,0-.4.1-.6,0-.2,0-.4.1-.7,0-.2.1-.5.2-.8l2-6.5h2.5l2,10.2-2,.3Z"/>
    <path class="st0" d="M291,63.1v-10.3h6v1.6h-3.9v2.7s3.9,0,3.9,0v1.6h-3.9v2.9s4,0,4,0v1.6h-6Z"/>
    <path class="st0" d="M308.9,62.8l-2.3.6-3.7-6.5c-.2-.3-.3-.5-.4-.8-.1-.2-.2-.5-.3-.6,0-.2-.2-.4-.2-.6,0,.3,0,.5,0,.8,0,.2,0,.4,0,.7,0,.2,0,.5,0,.7v6.1h-1.9v-10c0,0,2.4-.5,2.4-.5l2.1,3.6,1.6,2.8c.2.3.3.5.4.8.1.2.2.5.3.6,0,.2.2.4.3.6,0-.3,0-.5,0-.8,0-.2,0-.4,0-.7,0-.2,0-.5,0-.7v-6.2h1.9v10Z"/>
    <path class="st0" d="M316,54.3v8.7h-2.1v-8.7c0,0-2.6,0-2.6,0v-1.6h7.4v1.6h-2.7Z"/>
  </g>
  <path class="st1" d="M134,41.9h-6.7c.2-2.2.3-5.6.3-9v-3c0-3.3,0-7-.5-9h3.9c1.4,0,2.2.5,2.4,1.4,1.8-1.4,3.8-1.9,5.9-1.9,7.2,0,8.1,4.3,8.1,7.5v5.9c0,3.3.2,6.2.4,8h-4c-1.8,0-2.7-1.1-2.7-3v-8.5c0-3.4-.3-5.9-4.5-5.9s-1.9.2-2.7.5v7.5c0,2.6,0,7.2.2,9.4M114.1,20.9h6.7c-.2,2.2-.3,5.6-.3,9v3c0,3.4.2,7.1.5,9h-3.8c-1.4,0-2.2-.5-2.4-1.4-1.8,1.4-3.8,1.9-5.8,1.9-7.2,0-8.1-4.3-8.1-7.5v-5.8c0-3.3-.2-6.3-.4-8h4c1.8,0,2.7,1.1,2.7,3v8.5c0,3.4.3,5.9,4.5,5.9s1.9-.2,2.7-.5v-7.5c0-2.7,0-7.2-.2-9.4M95.1,25.9c-1.2-1.1-3.4-1.8-5.6-1.8s-3.5.2-3.5,2.1,1.6,2,4,2.9c2.8,1,6.1,2.4,6.1,6.3,0,6.3-6.7,7.1-9.8,7.1s-3.7-.2-5.1-.6c-1.4-.4-1.8-1-1.8-3v-2.3c1.6,1.1,4.2,1.7,6.3,1.7s3.8-.7,3.8-2.3-1.4-2.1-5-3.4c-2.5-1-5.1-2.2-5.1-5.9,0-5.3,6-6.7,9.6-6.7s3.9.4,5,.9c1,.5,1,1,1,2.3v2.6ZM177.2,31.3c0,4.8,1.7,7,5,7s4.8-2.2,4.8-7-1.6-7.1-4.8-7.1-5,2.2-5,7.1M193.1,31.2c0,7-4,11.3-11.2,11.3s-10.9-3.9-10.9-11.1,3.9-11.1,11.1-11.1,11,3.8,11,10.9M166.7,20.9c1.1,0,2.9,0,3.8-.2-.2.6-.6,2.3-1,3.1-.6,1.2-1.3,1.6-4.1,1.6h-2.4v7.1c0,2.6,0,7.2.3,9.4h-6.8c.2-2.2.3-6.7.3-9.4v-7.1h-2.1c-1.8,0-3.4.2-4.2.7v-2.8c0-1.6.3-2.3,2.7-2.3h13.5ZM233,35.8v.5c0,1.6,0,4.3.3,5.6h-6.8c.2-1.4.3-4.1.3-5.6v-.5c0-.9-.2-1.8-1-3.2-1.5-3.1-4.9-8.9-7.8-11.6,1.1-.2,3.2-.2,4.5-.2,2.6,0,3.4.9,4.1,1.9.6.9,2.8,5.3,3.5,7.1.9-2.1,2.7-5.8,3.4-7.1.6-1,1.5-2,3.8-2s2.7,0,4,.2c-2.1,1.8-6,8.3-7.6,11.3-.7,1.4-.8,2.2-.8,3.4M215.8,43.1c-2.6,0-3.1-1-4.7-3.3-.9-1.3-3.7-6-4.2-7-.2-.5-.3-.9.2-1.1,2.1-1.2,2.6-2.5,2.6-3.9s-.7-3.1-3.1-3.1-1.8,0-2.2.2v7.6c0,2.6,0,7.2.3,9.4h-6.6c.2-2.1.3-5.6.3-9v-3c0-3.4,0-7-.5-9,3.1,0,7.7-.2,9.7-.2,3.5,0,8.3.7,8.3,6s-1,3.9-2.8,5.1c-.3.2-.3.4,0,.9,2.3,3.4,5,7.1,7.5,9.8-.9.2-3.2.6-4.7.6"/>
</svg>