<?xml version="1.0" encoding="utf-8"?>
<!-- Generator: Adobe Illustrator 25.3.1, SVG Export Plug-In . SVG Version: 6.00 Build 0)  -->
<svg version="1.1" id="Layer_1" xmlns="http://www.w3.org/2000/svg" xmlns:xlink="http://www.w3.org/1999/xlink" x="0px" y="0px"
	 width="408.8px" height="85.7px" viewBox="0 0 408.8 85.7" style="enable-background:new 0 0 408.8 85.7;" xml:space="preserve">
<style type="text/css">
	.st0{fill:#5BC2DC;}
</style>
<path class="st0" d="M149.1,43.6H135c0.5-6,0.8-12,0.7-17.9v-5.9c0-6.7-0.2-14.1-1-17.9h8.1c3,0,4.6,1,5.1,2.9
	c3.6-2.5,7.9-3.9,12.3-3.8c15.1,0,17,8.7,17,15.1v11.7c-0.1,5.3,0.2,10.7,0.9,16h-8.4c-3.9,0-5.7-2.2-5.7-5.9v-17
	c0-6.7-0.7-11.8-9.4-11.8c-2,0-3.9,0.3-5.7,1v15.1C148.6,30.2,148.6,39.3,149.1,43.6 M107.4,1.8h14.1c-0.5,6-0.8,12-0.7,17.9v5.9
	c-0.1,6,0.2,12,1,17.9h-8.1c-3,0-4.6-1-5.1-2.9c-3.6,2.5-7.9,3.9-12.3,3.8c-15.2,0-17-8.7-17-15.1V17.8c0.1-5.3-0.2-10.7-0.9-16H87
	c3.9,0,5.7,2.2,5.7,5.9v17c0,6.7,0.7,11.9,9.4,11.9c2,0,3.9-0.3,5.7-1v-15C107.9,15.2,107.7,6.1,107.4,1.8 M67.3,11.7
	c-2.5-2.2-7.1-3.5-11.8-3.5c-3.4,0-7.4,0.5-7.4,4.2c0,2.7,3.4,4,8.4,5.8c5.9,2.1,12.8,4.8,12.8,12.7c0,12.5-14,14.1-20.5,14.1
	c-3.6,0.1-7.2-0.3-10.8-1.1c-3-0.8-3.7-2.1-3.7-5.9v-4.6c3.4,2.2,8.8,3.4,13.1,3.4c5.4,0,8.1-1.4,8.1-4.7c0-3-2.9-4.2-10.4-6.9
	c-5.2-1.9-10.8-4.5-10.8-11.7C34.3,2.7,46.9,0,54.5,0c3.6-0.1,7.2,0.5,10.6,1.8c2,1,2.2,2.1,2.2,4.6V11.7z"/>
<path class="st0" d="M239.7,22.4c0,9.6,3.5,13.9,10.4,13.9c6.7,0,10.1-4.3,10.1-13.9s-3.4-14.1-10.1-14.1
	C243.2,8.3,239.7,12.8,239.7,22.4 M273.2,22.3c0,13.9-8.4,22.6-23.6,22.6c-15.2,0-22.9-7.8-22.9-22.1c0-14.1,8.2-22.3,23.4-22.3
	C265.2,0.5,273.2,8.2,273.2,22.3 M217.8,1.8c2.6,0,5.3-0.1,7.9-0.5c-0.5,2.1-1.2,4.1-2,6.1c-1.2,2.4-2.7,3.2-8.6,3.2h-5v14.3
	c0,5.3,0.2,14.4,0.7,18.7h-14.3c0.5-4.3,0.7-13.4,0.7-18.7V10.6h-4.4c-3.9,0-7.2,0.5-8.9,1.4V6.4c0-3.2,0.7-4.6,5.7-4.6H217.8z"/>
<path class="st0" d="M356.8,31.4v1c0,3.7,0.2,7.5,0.7,11.2h-14.3c0.5-3.7,0.7-7.5,0.7-11.2v-1c0-1.8-0.5-3.5-2-6.4
	c-3.2-6.1-10.3-17.8-16.3-23.1c3.1-0.3,6.3-0.5,9.4-0.5c5.5,0,7.2,1.8,8.6,3.8c2.7,4.6,5.2,9.4,7.4,14.3c2.2-4.8,4.6-9.5,7.2-14.1
	c1.3-1.9,3.2-4,7.9-4c2.8,0,5.6,0.2,8.4,0.5c-4.4,3.7-12.6,16.7-16,22.6C357.3,26.6,356.7,29,356.8,31.4 M320.8,46
	c-5.4,0-6.6-1.9-9.9-6.6c-1.9-2.6-7.8-12-8.8-13.9c-0.5-1-0.7-1.8,0.3-2.2c4.4-2.4,5.5-5,5.5-7.8c0-3.4-1.5-6.2-6.6-6.2
	c-1.6,0-3.2,0.1-4.7,0.5v15.2c0,5.3,0.2,14.4,0.7,18.7h-13.8c0.5-6,0.7-12,0.7-17.9v-5.9c0-6.7-0.2-14.1-1-17.9
	c6.6,0,16.2-0.3,20.4-0.3c7.4,0,17.3,1.5,17.3,12c0,4.2-2.2,8-5.9,10.1c-0.7,0.5-0.7,0.8,0,1.8c4.6,6.7,10.4,14.3,15.6,19.6
	C327.5,45.6,324.2,45.9,320.8,46"/>
<path class="st0" d="M10.8,74.6c2.8,0.4,4.2,2.1,4.2,5c0,4-3,6-8.9,6c-1.7,0-3.7-0.1-6.1-0.2l0.2-20.9l2.2-0.1
	c2.4-0.1,4-0.2,4.8-0.2c1.3,0,2.7,0.1,3.9,0.4c2.3,0.5,4,2.6,3.8,5C14.9,72.3,13.5,74,10.8,74.6z M4.2,82.3h0.4c0.2,0,0.3,0,0.5,0
	c0.6,0,1,0,1.3,0c2.8,0,4.3-1,4.3-3.1c0.1-1-0.3-1.9-1.2-2.4c-0.9-0.4-2-0.6-3-0.6H4.3L4.2,82.3z M4.2,73.2h2.6c2.6,0,3.9-1,3.9-2.9
	c0-2-1.2-2.9-3.6-2.9l-2.7,0.1L4.2,73.2z"/>
<path class="st0" d="M32.3,85.4H20.1l0.1-20.9h12v3.2h-7.9v5.4h7.8v3.2h-7.8v5.9h8L32.3,85.4z"/>
<path class="st0" d="M54.6,65.1l-7.7,20.2h-4.4l-7.3-20.2l4.1-1.1l4.4,13c0.5,1.6,0.9,3.2,1.1,4.9v0.1c0.3-1.7,0.7-3.4,1.3-5
	l4.8-12.9L54.6,65.1z"/>
<path class="st0" d="M70,85.4H57.9L58,64.5h12v3.2h-7.9v5.4H70v3.2h-7.8v5.9h8L70,85.4z"/>
<path class="st0" d="M91.2,84.2l-3.8,1.7l-6.5-9.9l1-1.9c2.8-0.2,4.2-1.4,4.2-3.5c0-2.2-1.3-3.3-4-3.3c-0.9,0-1.7,0-2.4,0.1l-0.1,18
	h-4.1l0.1-20.9h0.2c3.2-0.2,5.4-0.3,6.6-0.3c5.3,0,7.9,1.9,7.9,5.8c0,3.1-1.6,5.1-4.9,6.1c0.5,0.4,0.9,0.9,1.2,1.4L91.2,84.2z"/>
<path class="st0" d="M112.1,84.8l-4.1,0.9l-2.1-6h-7.5l-2.2,5.9l-3.7-0.9l8-20.4h4.1L112.1,84.8z M104.9,76.6l-1.4-3.7
	c-0.6-1.6-1-3.3-1.2-5c-0.3,1.7-0.8,3.4-1.3,5l-1.3,3.8L104.9,76.6z"/>
<path class="st0" d="M132.2,75.2l-0.1,9.1c-2.3,0.9-4.7,1.3-7.1,1.4c-3.1,0.2-6.1-1-8.2-3.2c-1.7-2-2.6-4.6-2.5-7.2
	c-0.1-2.9,1.1-5.7,3.2-7.8c2.1-2.2,5.1-3.4,8.1-3.3c2,0,3.9,0.5,5.6,1.4l-1.6,2.6c-1.3-0.5-2.6-0.8-4-0.9c-2.1,0-4.2,1-5.3,2.8
	c-1,1.4-1.6,3.1-1.5,4.9c0,1.6,0.4,3.2,1.1,4.6c1.1,2,3.2,3.1,5.4,3c0.9,0,1.9-0.1,2.8-0.4l0.1-6.9L132.2,75.2z"/>
<path class="st0" d="M149.9,85.4h-12.1l0.1-20.9h12v3.2H142v5.4h7.7v3.2h-7.8v5.9h8L149.9,85.4z"/>
<path class="st0" d="M182.3,83.9l-3.3,2.3l-2.3-2.6c-1.8,1.4-4,2.2-6.2,2.1c-2.8,0-4.9-0.7-6.2-2.2c-1-1.1-1.5-2.5-1.5-4
	c0-2.3,1.5-4.4,4.6-6.5c-1.6-1.6-2.4-3-2.4-4.3c-0.1-1.5,0.7-2.9,2.1-3.6c1.2-0.6,2.5-1,3.9-0.9c1.4-0.1,2.9,0.4,3.9,1.3
	c0.7,0.7,1.2,1.7,1.1,2.8c0,1.7-1.2,3.3-3.5,4.8l3.9,4.4c0.2-1.3,0.3-2.6,0.3-3.9h3.5c0.1,2.3-0.3,4.7-1.2,6.9L182.3,83.9z
	 M174.7,81.2l-5.3-5.9c-1.3,0.7-2.1,2-2.2,3.5c-0.1,1,0.3,2,1,2.7c0.8,0.7,1.8,1.1,2.8,1C172.3,82.6,173.7,82.1,174.7,81.2
	L174.7,81.2z M170.7,70.8l0.3-0.2c1-0.8,1.6-1.5,1.6-2.2c0-1-0.6-1.6-1.7-1.6c-0.5,0-0.9,0.2-1.3,0.5c-0.3,0.3-0.5,0.7-0.5,1.1
	C169.1,68.9,169.6,69.7,170.7,70.8L170.7,70.8z"/>
<path class="st0" d="M206.8,67.7h-7.9l0,5.7h7.8v3.3h-7.8l-0.1,8.7h-4.2l0.1-20.9h12L206.8,67.7z"/>
<path class="st0" d="M221.1,64.2c3-0.2,5.9,1,8,3.2c3.6,4.5,3.4,11-0.6,15.3c-2,2.1-4.8,3.2-7.7,3.1c-3.4,0-6.1-1-7.9-3.1
	c-3.6-4.6-3.3-11.1,0.6-15.4C215.5,65.2,218.3,64.1,221.1,64.2z M221.1,67.3c-1.5,0-3,0.6-4.1,1.7c-1.5,1.7-2.3,3.9-2.1,6.1
	c0,5,2,7.5,6,7.5c2.5,0.1,4.8-1.4,5.6-3.8c0.5-1.2,0.8-2.6,0.8-3.9c0.1-1.7-0.3-3.4-1.1-4.9C225,68.2,223.1,67.1,221.1,67.3z"/>
<path class="st0" d="M245.8,64.2c3-0.2,5.9,1,8,3.2c1.8,2,2.7,4.7,2.6,7.4c0.1,3-1,5.8-3.1,7.9c-2,2.1-4.8,3.2-7.7,3.1
	c-3.4,0-6.1-1-7.9-3.1c-3.6-4.6-3.3-11.1,0.6-15.4C240.1,65.2,242.9,64.1,245.8,64.2z M245.7,67.3c-1.5,0-3,0.6-4.1,1.7
	c-1.5,1.7-2.3,3.9-2.1,6.1c0,5,2,7.5,6,7.5c2.5,0.1,4.8-1.4,5.6-3.8c0.5-1.2,0.8-2.6,0.7-3.9c0.1-1.7-0.3-3.4-1.1-4.9
	C249.6,68.2,247.7,67.1,245.7,67.3L245.7,67.3z"/>
<path class="st0" d="M261.1,64.5c3.3-0.2,5.6-0.3,7-0.3c3.9,0,6.8,1.1,8.8,3.1c1.6,2,2.5,4.5,2.3,7c0.1,2.9-1,5.7-3,7.8
	c-2.3,2.3-5.5,3.5-8.8,3.4c-1.6,0-3.7-0.1-6.3-0.2h-0.1L261.1,64.5z M265.1,82.4h0.4c1.1,0,1.8,0.1,2.2,0.1c1.8,0,3.5-0.6,4.7-1.9
	c1.6-1.6,2.4-3.8,2.3-6c0.1-2.1-0.6-4.2-2.2-5.7c-1.2-1.1-2.8-1.6-4.4-1.5c-0.6,0-1.5,0-2.7,0.1h-0.3L265.1,82.4z"/>
<path class="st0" d="M304.8,85.4h-12.2l0.1-20.9h12v3.2h-7.9v5.4h7.8v3.2h-7.8v5.9h8V85.4z"/>
<path class="st0" d="M327.1,64.5L327,77.9c0.1,2.2-0.8,4.3-2.4,5.7c-1.8,1.4-4,2.2-6.3,2.1c-2.8,0-4.9-0.8-6.4-2.4
	c-1.3-1.5-2-3.6-1.9-5.6l0.1-13.2h4.1l-0.1,13.4c0,3.1,1.5,4.7,4.6,4.7c1.3,0.1,2.5-0.4,3.4-1.4c0.8-1,1.2-2.3,1.2-3.6l0.1-13.2
	H327.1z"/>
<path class="st0" d="M348.5,84.2l-3.8,1.7l-6.5-9.9l1-1.9c2.8-0.2,4.2-1.4,4.2-3.5c0-2.2-1.3-3.3-4-3.3c-0.9,0-1.7,0-2.3,0.1
	l-0.1,18h-4.2l0.1-20.9h0.2c3.2-0.2,5.4-0.3,6.6-0.3c5.3,0,8,1.9,8,5.8c0,3.1-1.6,5.1-4.9,6.1c0.5,0.4,0.9,0.9,1.2,1.4L348.5,84.2z"
	/>
<path class="st0" d="M362.2,64.2c3-0.2,5.9,1,8,3.2c3.6,4.5,3.4,11-0.6,15.3c-2,2.1-4.8,3.2-7.7,3.1c-3.4,0-6.1-1-7.9-3.1
	c-3.6-4.6-3.3-11.1,0.6-15.4C356.6,65.2,359.4,64.1,362.2,64.2z M362.2,67.3c-1.5,0-3,0.6-4.1,1.7c-1.5,1.7-2.3,3.9-2.1,6.1
	c0,5,2,7.5,6,7.5c2.5,0.1,4.8-1.4,5.6-3.8c0.5-1.2,0.8-2.6,0.8-3.9c0.1-1.7-0.3-3.4-1.1-4.9C366.1,68.2,364.2,67.1,362.2,67.3z"/>
<path class="st0" d="M377.5,64.5c3.4-0.2,5.8-0.3,7.4-0.3c5,0,7.5,2.1,7.5,6.4c0,4.4-2.8,6.7-8.4,6.6h-2.4l-0.1,8.2h-4.1L377.5,64.5
	z M381.6,74h2.4c2.7,0,4-1.1,4-3.3s-1.2-3.3-3.5-3.3c-0.4,0-1.4,0-2.9,0.1L381.6,74z"/>
<path class="st0" d="M408.8,85.4h-12.2l0.1-20.9h12v3.2h-7.9v5.4h7.8v3.2h-7.8v5.9h8L408.8,85.4z"/>
</svg>
