<?xml version="1.0" encoding="UTF-8"?>
<svg id="Layer_2" xmlns="http://www.w3.org/2000/svg" xmlns:xlink="http://www.w3.org/1999/xlink" viewBox="0 0 1394 599.73">
  <defs>
    <style>
      .cls-1 {
        fill: #55cfe0;
      }

      .cls-2 {
        fill: #00984a;
      }

      .cls-2, .cls-3, .cls-4, .cls-5, .cls-6, .cls-7 {
        fill-rule: evenodd;
      }

      .cls-3 {
        fill: #0096d6;
      }

      .cls-4 {
        fill: #eb7b30;
      }

      .cls-5 {
        fill: #df002c;
      }

      .cls-6 {
        fill: url(#linear-gradient);
      }

      .cls-7 {
        fill: #28458e;
      }
    </style>
    <linearGradient id="linear-gradient" x1="225" y1="279.45" x2="1331.24" y2="279.45" gradientUnits="userSpaceOnUse">
      <stop offset="0" stop-color="#5ad0eb"/>
      <stop offset="1" stop-color="#093da2"/>
    </linearGradient>
  </defs>
  <g id="Layer_1-2" data-name="Layer_1">
    <g>
      <path class="cls-6" d="M233,281.47l1088-12s16-2,8,20H225l8-8Z"/>
      <g>
        <path class="cls-1" d="M586.67,68.47c0-27.63-7.59-64.99-69.87-64.99-18.21-.14-35.97,5.69-50.55,16.6-2.06-8.25-8.29-12.44-20.74-12.44h-33.21c3.48,25.67,4.88,51.58,4.19,77.48v25.66c0,29.07-.67,58.81-2.77,77.49h58.13l-.06-.15c-2.1-18.69-2.1-58.12-2.1-80.96V42.18c7.52-2.85,15.5-4.27,23.53-4.19,36.01,0,38.78,22.14,38.78,51.2v73.37c0,15.91,7.61,25.61,23.52,25.61h34.6c-2.54-22.97-3.69-46.07-3.46-69.18v-50.52Z"/>
        <path class="cls-1" d="M91.35,78.21c-20.74-7.61-34.59-13.15-34.59-24.9,0-15.9,16.56-18,30.4-18,17.44-.82,34.61,4.58,48.45,15.23v-22.84c0-11.07-.68-15.87-8.99-20.06C112.71,2.29,97.91-.29,83.02.03,51.87.03,0,11.78,0,57.45c0,31.13,22.82,42.15,44.26,50.51,31.15,11.76,42.89,16.6,42.89,29.75,0,13.83-11.06,20.06-33.21,20.06-18.99.29-37.68-4.74-53.95-14.54v20.06c0,16.6,2.76,22.14,15.24,25.61,14.5,3.47,29.38,5.1,44.28,4.84,26.98,0,84.41-6.92,84.41-60.88,0-33.91-28.37-45.67-52.59-54.66Z"/>
        <path class="cls-1" d="M355.6,85.12c0-29.06.67-58.81,2.77-77.48h-58.12l.02.06c1.4,18.67,2.1,58.1,2.1,80.94v64.99c-7.51,2.85-15.49,4.27-23.52,4.19-35.99,0-38.78-22.14-38.78-51.2V33.24c0-15.92-7.62-25.6-23.53-25.6h-34.59c2.54,22.97,3.7,46.07,3.46,69.18v50.5c0,27.67,7.63,65.04,69.88,65.04,18.2.13,35.94-5.71,50.51-16.61,2.08,8.26,8.31,12.45,20.76,12.45h33.24c-3.14-25.71-4.54-51.6-4.19-77.49v-25.6Z"/>
        <path class="cls-1" d="M639.93,7.64c-22.82,0-25.6,9.68-25.6,25.61v18.68c11.58-4.88,24.14-7.01,36.69-6.23h17.95v61.53c0,22.83-.67,62.27-2.77,80.96h58.8c-2.08-18.69-2.76-58.12-2.76-80.96v-61.57h20.75c24.2,0,30.43-3.46,35.28-13.84,3.29-8.59,6.06-17.36,8.3-26.28-10.77,1.45-21.63,2.15-32.49,2.1h-114.17Z"/>
        <path class="cls-1" d="M886.94,2.09c-62.28,0-96.17,35.29-96.17,96.19s31.81,95.47,94.08,95.47,96.86-37.36,96.86-97.55h.01c0-60.89-32.5-94.1-94.78-94.1ZM886.95,157.07c-28.37,0-42.89-18.68-42.89-60.19s14.53-60.89,42.89-60.89,41.51,19.38,41.51,60.89-13.83,60.19-41.51,60.19Z"/>
        <path class="cls-1" d="M1150.54,101.72c15.05-9.29,24.01-25.89,23.52-43.57,0-45.66-40.18-51.88-70.57-51.88-17.29,0-53.27,1.37-80.26,1.37,3.49,25.68,4.89,51.6,4.19,77.5v25.61c0,29.05-.67,59.49-2.77,77.49h56.68c-2.08-18.69-2.77-58.12-2.77-80.96V41.55c5.16-1.52,10.53-2.22,15.91-2.1,20.75,0,26.29,12.46,26.29,26.98,0,12.45-4.15,23.52-22.15,33.9-4.14,2.1-3.47,5.5-1.37,9.7,4.14,8.31,28.36,49.13,35.97,60.2,13.84,20.06,18.69,28.37,40.82,28.37h.02c13.74-.26,27.41-1.89,40.83-4.85-23.57-26.45-45.09-54.66-64.35-84.4-2.77-4.16-2.77-5.53,0-7.63Z"/>
        <path class="cls-1" d="M1359.41,6.26c-13.26-.98-25.9,5.75-32.49,17.29-11,19.74-20.93,40.07-29.74,60.88-9.01-21.07-19.15-41.63-30.36-61.61-5.54-8.98-12.46-16.6-35.28-16.6-12.96-.02-25.9.68-38.78,2.1,24.89,22.85,53.95,73.35,67.08,99.65,4.98,8.41,7.84,17.9,8.31,27.66v4.19c.15,16.19-.77,32.37-2.77,48.44h58.8c-2.01-16.06-2.93-32.25-2.76-48.44v-4.19l-.06.04c-.56-10.37,1.85-20.69,6.93-29.75,13.81-25.61,47.72-81.64,65.71-97.56-11.48-1.32-23.03-2.02-34.59-2.1Z"/>
      </g>
      <g>
        <path class="cls-7" d="M358.72,494.14h30.27c11.81,0,16.3,4.08,16.3,14.06s-4.49,13.68-16.3,13.68h-30.27v-27.74ZM311.82,595.11h46.9v-41.06h50.23c33.26,0,45.23-19.59,45.23-44.92,0-29.4-12.31-46.04-45.57-46.04h-96.8v132.02ZM469.66,463.08h126.22v32.17h-79.33v17.75h73.68v32.18h-73.68v17.75h79.33v32.17h-126.22v-132.02ZM662.41,494.14h30.27c11.81,0,16.3,4.08,16.3,14.06s-4.49,13.68-16.3,13.68h-30.27v-27.74ZM615.51,595.11h46.9v-41.06h50.23c33.27,0,45.25-19.59,45.25-44.92,0-29.4-12.31-46.04-45.58-46.04h-96.79v132.02ZM803.28,539.08c-22.95-3.89-32.42-18.68-32.42-37.17,0-34.21,30.1-43.45,68.68-43.45,52.88,0,74.67,15.34,76.34,43.27h-54.55c0-5.36-2.83-8.7-7.14-10.55-4.16-2.03-9.48-2.77-14.64-2.77-13.97,0-18.79,3.88-18.79,9.43,0,3.69,1.49,6.1,6.15,6.84l56.05,9.24c23.62,3.88,38.26,16.09,38.26,38.46,0,32.18-23.62,47.35-76.34,47.35-36.09,0-75.51-5.55-75.67-44.38h56.55c.16,4.43,1.66,7.39,4.99,9.43,3.48,1.85,8.64,2.78,15.96,2.78,14.63,0,18.63-4.44,18.63-10.73,0-3.88-2.17-7.76-8.47-8.87l-53.56-8.88ZM936.49,463.08h46.9v132.02h-46.9v-132.02ZM1157.2,543.7c-2.99,17.38-8.32,31.44-19.97,41.05-11.47,9.62-29.44,14.98-58.04,14.98s-81.16-2.22-81.16-70.63,52.72-70.64,81.16-70.64,71.84,4.06,78,56.4h-52.89c-1.33-9.44-6.99-23.12-25.11-23.12-19.14,0-31.27,10.54-31.27,37.36s11.81,37.34,28.94,37.34c14.81,0,23.62-6.84,27.45-22.74h52.89,0ZM1218.57,529.1c0-26.82,12.15-37.36,31.27-37.36s31.27,10.54,31.27,37.36-12.15,37.34-31.27,37.34c-19.13,0-31.27-10.53-31.27-37.34h0ZM1168.67,529.1c0,68.4,52.72,70.63,81.17,70.63s81.16-2.22,81.16-70.63-52.72-70.64-81.16-70.64-81.17,2.22-81.17,70.64h0ZM240.96,464.39c3.03-63.34-51.6-134.67-126.06-143.49l.13-.87c73.41,0,129.69,67.96,129.69,121.58-.07,11.16-.95,18.08-2.52,23.1l-1.23-.32ZM236.51,472.44c-4.88,5.97-11.03,11.98-18.22,17.68-13.24-76.15-69.2-142.74-108.76-162.17l-.85.59c39.79,32.65,87.24,96.07,105.69,164.57-9.41,6.91-19.58,12.74-30.31,17.36-37.54-42.81-72.55-125.39-83.83-177.78l-1.15.35c.25,50.86,36.37,137.2,80.4,179.34-10.1,4-20.6,6.9-31.32,8.65-42.21-16.72-72.26-70.28-72.26-125.15,0-35.82,10.92-57.97,13.03-62.51l-.9-.36c-2.56,3.87-18.55,26.01-18.55,64.68,0,62.02,30.59,109.42,71.19,124.35-14.52,1.6-29.2.91-43.51-2.04l-.3.95c4.34,1.6,19.08,7.79,41.56,7.79,50.85,0,85.23-31.59,99.06-55.61l-.99-.67Z"/>
        <path class="cls-3" d="M133.35,297.66c-38.55,0-83.75,27.82-83.75,53.25,0,9.84,9,18.15,27.62,18.15,43.23,0,83.4-29.7,83.4-52.8,0-12.15-11.67-18.6-27.28-18.6ZM148.74,315.54c0,19.47-37.39,43.27-68.64,43.27-13.81,0-21.27-5.43-21.27-14.4,0-19.75,37.81-43.14,67.13-43.14,19.11,0,22.78,9.73,22.78,14.28Z"/>
        <path class="cls-4" d="M34.25,362.69c-1.08,1.87-5.42,10.37-5.42,19.08,0,16.15,16.31,31.14,46.32,31.14,57.72,0,124.42-42.49,124.42-81.93,0-17.7-16.76-27.33-28.4-29.32l-.22.69c3.62,1.14,16.88,7.31,16.88,23.08,0,31.43-58.88,74.25-117.54,74.25-22.45,0-36.6-11.08-36.6-27.23,0-5.11,1.06-8.47,1.34-9.45l-.78-.3Z"/>
        <path class="cls-2" d="M223.36,333.92c1.58,1.2,11.09,9.13,11.09,24.11,0,51.09-80.05,101.33-150.83,101.33-42.21,0-61.45-20.84-60.59-39.34h.76c1.65,9.61,15.36,26.81,52.3,26.81,70.86,0,149.98-51.99,149.98-97.53,0-7.81-2.12-12.68-3.32-14.85l.62-.53Z"/>
        <path class="cls-5" d="M250.12,381.61c.33,1.09,2.06,5.98,2.06,13.64,0,56.84-81.02,105.49-151.48,105.49-36.27,0-55.2-17.62-59.2-24.77l.65-.48c10.03,8.78,29.8,15.44,52.87,15.44,62.23,0,155.09-47.34,154.26-109.12l.85-.21Z"/>
      </g>
    </g>
  </g>
</svg>